<svg version="1.2" xmlns="http://www.w3.org/2000/svg" viewBox="0 0 50 50" width="50" height="50">
	<title>Unity</title>
	<style>
		.s0 { fill: #ffffff } 
	</style>
	<path class="s0" d="m44.08 25.21l2.82-4.78q0.17-0.37 0.05-0.76l-5.59-16c-0.17-0.49-0.68-0.76-1.18-0.64l-16.42 4c-0.31 0.08-0.57 0.3-0.69 0.6l-1.75 4.37h-5.32c-0.28 0-0.55 0.12-0.73 0.32l-12 13c-0.38 0.4-0.36 1.03 0.04 1.4l12.58 12c0.19 0.18 0.44 0.28 0.69 0.28h5.74l1.75 4.37c0.13 0.33 0.42 0.56 0.76 0.61l17.46 3q0.08 0.02 0.17 0.02c0.46 0 0.87-0.32 0.97-0.79l3.55-16.23q0.08-0.38-0.13-0.73zm-22.76-13.21l14.1-2.58-7.42 14.58h-16.83zm1 27l-11.16-11h16.83l8.75 13.17zm18.07-0.1l-8.39-12.9 7.33-14.58 4.75 13.79z"/>
</svg>